
[img]http://www.shockya.com/news/wp-content/uploads/sorcerers_apprentice_poster1.jpg[/img]
[code]
MP4 container, with correct limitations, to make it PS3 and 360 compatible.

IMDB Link
 
http://www.imdb.com/title/tt0963966/

IMDB Rating

6.1/10   860 votes 

Release Date

13 August 2010 (UK)

Genre

Action | Adventure | Comedy | Drama | Fantasy

Cast

Nicolas Cage	 ... Balthazar
Jay Baruchel	... Dave
Alfred Molina	... Horvath
Teresa Palmer	... Becky
Toby Kebbell	... Drake Stone
Omar Benson Miller	... Bennet
Monica Bellucci	... Veronica
Alice Krige	... Morgana
Jake Cherry	... Young Dave
James A. Stephens	... Merlin
Gregory Woo	... Sun-Lok
Wai Ching Ho	... Chinese Woman
Jason Moore	... Subway Mugger
Robert Capron	... Young Dave's Pal (as Robert B. Capron)
Peyton List	... Young Becky (as Peyton Roi List)

Plot

Balthazar Blake (Nicolas Cage) is a master sorcerer in modern-day Manhattan trying to defend the city from his arch-nemesis, Maxim Horvath (Alfred Molina). Balthazar can't do it alone, so he recruits Dave Stutler (Jay Baruchel), a seemingly average guy who demonstrates hidden potential, as his reluctant protégé. The sorcerer gives his unwilling accomplice a crash course in the art and science of magic, and together, these unlikely partners work to stop the forces of darkness. It'll take all the courage Dave can muster to survive his training, save the city and get the girl as he becomes The Sorcerer's Apprentice. 

Source Used

The Sorcerer's Apprentice TS XViD IMAGiNE (Respect + Thanks)

General

Complete name                    : The Sorcerer's Apprentice, TS, x264-Jucified (375MB).mp4
Format                           : MPEG-4
Format profile                   : Base Media
Codec ID                         : isom
File size                        : 376 MiB
Duration                         : 1h 38mn
Overall bit rate                 : 534 Kbps

Video

Format                           : AVC
Format/Info                      : Advanced Video Codec
Format profile                   : High@L4.1
Format settings, CABAC           : Yes
Format settings, ReFrames        : 2 frames
Codec ID                         : avc1
Codec ID/Info                    : Advanced Video Coding
Duration                         : 1h 38mn
Bit rate mode                    : Variable
Bit rate                         : 499 Kbps
Maximum bit rate                 : 1 661 Kbps
Width                            : 640 pixels
Height                           : 272 pixels
Display aspect ratio             : 2.35
Frame rate mode                  : Constant
Frame rate                       : 25.000 fps
Resolution                       : 24 bits
Colorimetry                      : 4:2:0
Scan type                        : Progressive
Bits/(Pixel*Frame)               : 0.115
Stream size                      : 351 MiB (93%)

Audio

Format                           : AAC
Format/Info                      : Advanced Audio Codec
Format version                   : Version 4
Format profile                   : LC
Format settings, SBR             : Yes
Format settings, PS              : No
Codec ID                         : 40
Duration                         : 1h 38mn
Bit rate mode                    : Variable
Bit rate                         : 32.0 Kbps
Maximum bit rate                 : 35.4 Kbps
Channel(s)                       : 2 channels
Channel positions                : L R
Sampling rate                    : 44.1 KHz
Resolution                       : 16 bits
Stream size                      : 22.5 MiB (6%)
[/code]
Screens:
[img]http://img143.imageshack.us/img143/7882/vlcsnap00001e.png[/img]
[img]http://img535.imageshack.us/img535/3879/vlcsnap00002p.png[/img]
[img]http://img695.imageshack.us/img695/607/vlcsnap00004k.png[/img]
